<?xml version="1.0" encoding="utf-8"?>
<!-- Generator: Adobe Illustrator 22.0.1, SVG Export Plug-In . SVG Version: 6.00 Build 0)  -->
<svg version="1.1" id="Layer_1" xmlns="http://www.w3.org/2000/svg" xmlns:xlink="http://www.w3.org/1999/xlink" x="0px" y="0px"
	 viewBox="0 0 1100 326" style="enable-background:new 0 0 1100 326;" xml:space="preserve">
<style type="text/css">
	.st0{fill:#4C8D9E;}
	.st1{fill:#494949;}
	.st2{fill:#666666;}
	.st3{fill:#D4F5FF;}
	.st4{fill:#FFB946;}
	.st5{fill:#FFAC33;}
	.st6{fill:#FFAC33;stroke:#FFAC33;stroke-miterlimit:10;}
	.st7{fill:none;stroke:#444444;stroke-width:3;stroke-miterlimit:10;}
</style>
<title>AISformsLogo_simplifiedArtboard 1</title>
<path class="st0" d="M439.4,90v19.9c-7.5-3.3-13.9-4.8-19.3-4.8c-3.5-0.1-6.9,0.7-9.9,2.4c-2.7,1.6-4.2,3.5-5,5.6s-1,7.6-1,16.7
	v21.4h33.1v17.6h-33.1l-0.1,140.8h-20.4V168.9H363v-17.6h20.8v-24.8c0-11.4,1.1-19.4,3.1-24.4c2.2-5,5.9-9.1,10.6-11.7
	c5-3,11-4.5,18.1-4.5C422.3,86,430.3,87.3,439.4,90z"/>
<path class="st0" d="M533.4,147.1c24.4,0,44.7,8.8,60.7,26.6c14.6,16.1,21.9,35.1,21.9,57.2s-7.7,41.4-23.2,58.1
	c-15.5,16.5-35.3,24.9-59.4,24.9c-24.3,0-44.1-8.3-59.7-24.9c-15.5-16.5-23.2-36-23.2-58.1c0-22,7.2-40.9,21.9-57.1
	C488.6,156.1,508.9,147.1,533.4,147.1z M533.4,167c-16.9,0-31.5,6.3-43.7,18.8c-12.2,12.6-18.2,27.7-18.2,45.4
	c0,11.2,2.8,22.2,8.3,32c5.2,9.5,13,17.5,22.5,22.9c19.3,10.7,42.9,10.7,62.3,0c9.5-5.4,17.3-13.4,22.5-22.9
	c5.6-9.8,8.3-20.8,8.3-32c0-17.8-6.2-33-18.4-45.4C564.8,173.3,550.2,167,533.4,167L533.4,167z"/>
<path class="st0" d="M638.6,151.2h20.9v23.2c6.2-9.2,12.8-15.9,19.7-20.4c6.4-4.3,13.9-6.8,21.5-6.8c5.7,0,11.7,1.8,18.1,5.4
	l-10.6,17.1c-4.2-1.8-7.9-2.8-10.7-2.8c-6.8,0-13.4,2.8-19.7,8.3c-6.3,5.6-11.1,14.3-14.4,26c-2.5,9.1-3.7,27.3-3.7,54.7v53.6h-20.8
	V151.2H638.6z"/>
<path class="st0" d="M741.7,151.2h20.4v27.4c7.1-10.1,14.4-17.5,21.9-22.1c9.8-6,21-9.3,32.5-9.3c7.5,0,15,1.4,21.9,4.5
	c6.5,2.7,12.2,6.8,16.9,12.1c4.3,5,8.2,12.2,11.4,21.5c6.8-12.4,15.2-21.9,25.5-28.4c9.8-6.4,21.1-9.7,32.8-9.7
	c11,0,20.7,2.8,29,8.3c8.5,5.7,15,13.6,18.7,23.2c4.1,9.9,6,24.8,6,44.6v86.5h-20.8v-86.5c0-17-1.2-28.6-3.6-35
	c-2.4-6.3-6.8-11.7-12.4-15.3c-5.8-3.9-12.8-5.8-21-5.8c-9.8,0-19.2,3-27.1,8.7c-8.2,5.8-14.4,13.9-18,23.3
	c-3.7,9.7-5.7,26-5.7,48.7v62.1h-20.4v-81.2c0-19.1-1.2-32.1-3.5-39c-2.3-6.6-6.6-12.4-12.4-16.4c-5.9-4.1-12.9-6.2-21.1-6.2
	c-9.5,0-18.7,3-26.4,8.6c-8.2,5.7-14.6,13.6-18.2,22.9c-4,9.7-5.9,24.3-5.9,44.2V310h-20.3L741.7,151.2L741.7,151.2z"/>
<path class="st0" d="M1095,168.6l-13.2,13.5c-10.9-10.6-21.6-15.8-32-15.8c-6.3-0.1-12.4,2.2-17,6.5c-4.7,4.3-7.1,9.4-7.1,15.3
	c0,5.2,1.9,10,5.8,14.7c3.9,4.7,12.1,10.3,24.5,16.8c15.2,7.9,25.5,15.5,30.9,22.7c5.3,7.2,8.1,15.9,8.1,24.9
	c0.2,12.4-4.7,24.4-13.6,33.1c-9.2,9.1-20.5,13.5-34.3,13.5c-9.1,0-18-2.1-26.2-5.9c-8.1-3.7-15.2-9.4-20.7-16.4l12.8-14.5
	c10.4,11.7,21.5,17.6,33.1,17.6c7.7,0.1,15.2-2.7,20.9-7.9c5.8-5.2,8.6-11.4,8.6-18.5c0-5.7-1.9-11.2-5.7-15.6
	c-3.7-4.5-12.3-10.1-25.7-16.9c-14.3-7.4-24-14.6-29.2-21.9c-5.2-7.1-7.9-15.8-7.7-24.6c0-12.1,4.1-22.1,12.3-30
	c8.2-8,18.6-12,31.2-12C1065.5,147.1,1080.3,154.2,1095,168.6z"/>
<circle class="st1" cx="163.5" cy="163.4" r="161"/>
<ellipse class="st2" cx="163.4" cy="121.8" rx="122.6" ry="107.3"/>
<path class="st3" d="M134.9,259.2l8.9,28.9v-88.5L121,136h-7.2v-18.5l-13.6-36.3h-8L25.6,246.7c6,10.2,13.1,19.7,21.1,28.3l5.6-15.7
	L134.9,259.2z M94.7,138.7l31.5,97.7H60.3L94.7,138.7z"/>
<path class="st3" d="M293.7,259.2c0.6-3.4,0.9-6.8,0.9-10.2c0-15.3-3.1-28-9.2-38s-16.7-18.6-31.9-25.7l-18.2-8.6
	c-11.7-5.7-19.5-10.1-23.3-13.2c-3.8-3.2-6.8-7.1-8.9-11.7c-2.2-4.9-3.3-10.1-3.2-15.5c0-9.2,3-16.7,8.9-22.6s14-8.8,24.3-8.8
	c7.8,0.1,15.6,1.5,23,4.1c8.3,2.7,14.4,5.6,18.5,8.5l8.9-26.4c-9.6-8-26.7-12-51.2-12c-18.4,0-33.4,5.8-45.1,16.7
	c-2.3,2.1-4.4,5-6.2,7h2.9v75.9c6.2,6.8,15.1,12.8,26.4,18.1l17.9,8.3c16.1,7.6,26.1,14.6,30.1,21c3.9,6.2,6,13.5,6,20.8
	c0,10-3.6,18.2-10.8,24.7s-16.7,9.7-28.5,9.7c-6.7,0-14.3-1.4-22.7-4.2c-6.5-2.1-12.7-4.9-18.5-8.5v33.3c10.4,4.4,23.1,6.6,36.7,6.6
	c5.1,0,10.2-0.3,15.3-1C258.9,296.4,278.6,279.7,293.7,259.2z"/>
<path class="st4" d="M182.5,302l1.3,3.8h-33.6l-6.4-17.6v35.5c6.6,0.7,13.2,1.1,19.8,1.2c6.9,0,13.7-0.4,20.6-1.2v-21.4
	C183.1,302,183.1,302.2,182.5,302z"/>
<path class="st4" d="M164.2,75.3c13.5,0,24.5-10.9,24.5-24.4v-0.1c0.1-6.5-2.5-12.7-7.2-17.1c-9.4-9.5-24.8-9.6-34.4-0.2
	c-4.6,4.6-7.2,10.8-7.2,17.4c-0.1,6.5,2.5,12.8,7.2,17.4C151.6,72.8,157.8,75.4,164.2,75.3z"/>
<path class="st4" d="M113.7,117.6l7.2,18.5h22.8v63.6l31.2,82.6l6.2-15.3c0.9,0.6,1.9,1.2,2.9,1.9v-90c-2-2.2-3.8-4.5-5.3-7
	c-6-9.7-9-21.1-9-34.7c0-13.3,3.8-23.8,11.4-34.2h-67.4L113.7,117.6L113.7,117.6z"/>
<polygon class="st5" points="113.7,136.1 120.9,136.1 113.7,117.6 "/>
<path class="st5" d="M174.9,282.3l-31.2-82.6v88.5l6.4,17.6h33.6l-1.3-3.8c-4.3-1.9-8.5-4.2-12.4-6.8L174.9,282.3z"/>
<path class="st5" d="M178.8,171.9c1.6,2.5,3.3,4.8,5.3,7V103h-2.9c-7.6,10.3-11.4,20.9-11.4,34.2
	C169.8,150.8,172.8,162.2,178.8,171.9z"/>
<path class="st6" d="M175.4,282.3l7.1,19.2c0.5,0.3,1,0.6,1.6,0.7v-33.3c-0.9-0.6-1.8-1.2-2.7-1.9L175.4,282.3z"/>
<path class="st6" d="M170.4,294.9c3.8,2.6,7.9,4.8,12.1,6.6l-7.1-19.2L170.4,294.9z"/>
<circle class="st7" cx="163.5" cy="163.4" r="161"/>
</svg>
