<?xml version="1.0" encoding="utf-8"?>
<!-- Generator: Adobe Illustrator 22.0.1, SVG Export Plug-In . SVG Version: 6.00 Build 0)  -->
<svg version="1.1" id="Layer_1" xmlns="http://www.w3.org/2000/svg" xmlns:xlink="http://www.w3.org/1999/xlink" x="0px" y="0px"
	 viewBox="0 0 1000 326" style="enable-background:new 0 0 1000 326;" xml:space="preserve">
<style type="text/css">
	.st0{fill:#4C8D9E;}
	.st1{fill:#494949;}
	.st2{fill:#666666;}
	.st3{fill:#D4F5FF;}
	.st4{fill:#FFB946;}
	.st5{fill:#FFAC33;}
	.st6{fill:#FFAC33;stroke:#FFAC33;stroke-miterlimit:10;}
	.st7{fill:none;stroke:#444444;stroke-width:3;stroke-miterlimit:10;}
</style>
<title>AISformsLogo_simplifiedArtboard 1</title>
<path class="st0" d="M439.8,87.5v16.5c-6.2-2.7-11.5-4-16-4c-2.9-0.1-5.7,0.6-8.2,2c-2.2,1.3-3.5,2.9-4.1,4.6
	c-0.6,1.7-0.8,6.3-0.8,13.8v17.7h27.4v14.6h-27.4l-0.1,116.6h-16.9V152.8h-17.2v-14.6h17.2v-20.5c0-9.4,0.9-16.1,2.6-20.2
	c1.8-4.1,4.9-7.5,8.8-9.7c4.1-2.5,9.1-3.7,15-3.7C425.6,84.2,432.2,85.3,439.8,87.5z"/>
<path class="st0" d="M517.6,134.8c20.2,0,37,7.3,50.3,22c12.1,13.3,18.1,29.1,18.1,47.4s-6.4,34.3-19.2,48.1
	c-12.8,13.7-29.2,20.6-49.2,20.6c-20.1,0-36.5-6.9-49.4-20.6c-12.8-13.7-19.2-29.8-19.2-48.1c0-18.2,6-33.9,18.1-47.3
	C480.5,142.2,497.3,134.8,517.6,134.8z M517.6,151.3c-14,0-26.1,5.2-36.2,15.6c-10.1,10.4-15.1,22.9-15.1,37.6
	c0,9.3,2.3,18.4,6.9,26.5c4.3,7.9,10.8,14.5,18.6,19c16,8.9,35.5,8.9,51.6,0c7.9-4.5,14.3-11.1,18.6-19c4.6-8.1,6.9-17.2,6.9-26.5
	c0-14.7-5.1-27.3-15.2-37.6C543.6,156.5,531.5,151.3,517.6,151.3L517.6,151.3z"/>
<path class="st0" d="M604.7,138.2H622v19.2c5.1-7.6,10.6-13.2,16.3-16.9c5.3-3.6,11.5-5.6,17.8-5.6c4.7,0,9.7,1.5,15,4.5l-8.8,14.2
	c-3.5-1.5-6.5-2.3-8.9-2.3c-5.6,0-11.1,2.3-16.3,6.9c-5.2,4.6-9.2,11.8-11.9,21.5c-2.1,7.5-3.1,22.6-3.1,45.3v44.4h-17.2V138.2z"/>
<path class="st0" d="M690.1,138.2H707v22.7c5.9-8.4,11.9-14.5,18.1-18.3c8.1-5,17.4-7.7,26.9-7.7c6.2,0,12.4,1.2,18.1,3.7
	c5.4,2.2,10.1,5.6,14,10c3.6,4.1,6.8,10.1,9.4,17.8c5.6-10.3,12.6-18.1,21.1-23.5c8.1-5.3,17.5-8,27.2-8c9.1,0,17.1,2.3,24,6.9
	c7,4.7,12.4,11.3,15.5,19.2c3.4,8.2,5,20.5,5,36.9v71.6h-17.2v-71.6c0-14.1-1-23.7-3-29c-2-5.2-5.6-9.7-10.3-12.7
	c-4.8-3.2-10.6-4.8-17.4-4.8c-8.1,0-15.9,2.5-22.4,7.2c-6.8,4.8-11.9,11.5-14.9,19.3c-3.1,8-4.7,21.5-4.7,40.3v51.4h-16.9v-67.2
	c0-15.8-1-26.6-2.9-32.3c-1.9-5.5-5.5-10.3-10.3-13.6c-4.9-3.4-10.7-5.1-17.5-5.1c-7.9,0-15.5,2.5-21.9,7.1
	c-6.8,4.7-12.1,11.3-15.1,19c-3.3,8-4.9,20.1-4.9,36.6v55.6h-16.8V138.2z"/>
<path class="st0" d="M982.6,152.6l-10.9,11.2c-9-8.8-17.9-13.1-26.5-13.1c-5.2-0.1-10.3,1.8-14.1,5.4c-3.9,3.6-5.9,7.8-5.9,12.7
	c0,4.3,1.6,8.3,4.8,12.2c3.2,3.9,10,8.5,20.3,13.9c12.6,6.5,21.1,12.8,25.6,18.8c4.4,6,6.7,13.2,6.7,20.6
	c0.2,10.3-3.9,20.2-11.3,27.4c-7.6,7.5-17,11.2-28.4,11.2c-7.5,0-14.9-1.7-21.7-4.9c-6.7-3.1-12.6-7.8-17.1-13.6l10.6-12
	c8.6,9.7,17.8,14.6,27.4,14.6c6.4,0.1,12.6-2.2,17.3-6.5c4.8-4.3,7.1-9.4,7.1-15.3c0-4.7-1.6-9.3-4.7-12.9
	c-3.1-3.7-10.2-8.4-21.3-14c-11.8-6.1-19.9-12.1-24.2-18.1c-4.3-5.9-6.5-13.1-6.4-20.4c0-10,3.4-18.3,10.2-24.8
	c6.8-6.6,15.4-9.9,25.8-9.9C958.2,134.8,970.4,140.7,982.6,152.6z"/>
<circle class="st1" cx="163.5" cy="163.4" r="161"/>
<ellipse class="st2" cx="163.4" cy="121.8" rx="122.6" ry="107.3"/>
<path class="st3" d="M134.9,259.2l8.9,28.9v-88.5l-22.8-63.6h-7.2v-18.5l-13.6-36.3h-8L25.6,246.7c6,10.2,13.1,19.7,21.1,28.3
	l5.6-15.7L134.9,259.2z M94.7,138.7l31.5,97.7H60.3L94.7,138.7z"/>
<path class="st3" d="M293.7,259.2c0.6-3.4,0.9-6.8,0.9-10.2c0-15.3-3.1-28-9.2-38s-16.7-18.6-31.9-25.7l-18.2-8.6
	c-11.7-5.7-19.5-10.1-23.3-13.2c-3.8-3.2-6.8-7.1-8.9-11.7c-2.2-4.9-3.3-10.1-3.2-15.5c0-9.2,3-16.7,8.9-22.6
	c5.9-5.9,14-8.8,24.3-8.8c7.8,0.1,15.6,1.5,23,4.1c8.3,2.7,14.4,5.6,18.5,8.5l8.9-26.4c-9.6-8-26.7-12-51.2-12
	c-18.4,0-33.4,5.8-45.1,16.7c-2.3,2.1-4.4,5-6.2,7h2.9v75.9c6.2,6.8,15.1,12.8,26.4,18.1l17.9,8.3c16.1,7.6,26.1,14.6,30.1,21
	c3.9,6.2,6,13.5,6,20.8c0,10-3.6,18.2-10.8,24.7c-7.2,6.5-16.7,9.7-28.5,9.7c-6.7,0-14.3-1.4-22.7-4.2c-6.5-2.1-12.7-4.9-18.5-8.5
	v33.3c10.4,4.4,23.1,6.6,36.7,6.6c5.1,0,10.2-0.3,15.3-1C258.9,296.4,278.6,279.7,293.7,259.2z"/>
<path class="st4" d="M182.5,302l1.3,3.8h-33.6l-6.4-17.6v35.5c6.6,0.7,13.2,1.1,19.8,1.2c6.9,0,13.7-0.4,20.6-1.2v-21.4
	C183.1,302,183.1,302.2,182.5,302z"/>
<path class="st4" d="M164.2,75.3c13.5,0,24.5-10.9,24.5-24.4c0,0,0-0.1,0-0.1c0.1-6.5-2.5-12.7-7.2-17.1c-9.4-9.5-24.8-9.6-34.4-0.2
	c-4.6,4.6-7.2,10.8-7.2,17.4c-0.1,6.5,2.5,12.8,7.2,17.4C151.6,72.8,157.8,75.4,164.2,75.3z"/>
<path class="st4" d="M113.7,117.6l7.2,18.5h22.8v63.6l31.2,82.6l6.2-15.3c0.9,0.6,1.9,1.2,2.9,1.9v-90c-2-2.2-3.8-4.5-5.3-7
	c-6-9.7-9-21.1-9-34.7c0-13.3,3.8-23.8,11.4-34.2h-67.4V117.6z"/>
<polygon class="st5" points="113.7,136.1 120.9,136.1 113.7,117.6 "/>
<path class="st5" d="M174.9,282.3l-31.2-82.6v88.5l6.4,17.6h33.6l-1.3-3.8c-4.3-1.9-8.5-4.2-12.4-6.8L174.9,282.3z"/>
<path class="st5" d="M178.8,171.9c1.6,2.5,3.3,4.8,5.3,7V103h-2.9c-7.6,10.3-11.4,20.9-11.4,34.2
	C169.8,150.8,172.8,162.2,178.8,171.9z"/>
<path class="st6" d="M175.4,282.3l7.1,19.2c0.5,0.3,1,0.6,1.6,0.7v-33.3c-0.9-0.6-1.8-1.2-2.7-1.9L175.4,282.3z"/>
<path class="st6" d="M170.4,294.9c3.8,2.6,7.9,4.8,12.1,6.6l-7.1-19.2L170.4,294.9z"/>
<circle class="st7" cx="163.5" cy="163.4" r="161"/>
</svg>
